# xmcd
#
# Track frame offsets:
#	150
#	11961
#	24995
#	37217
#	47591
#	61098
#	70139
#	81812
#	94636
#	106255
#	117165
#	130936
#	140988
#	154581
#	166255
#	178620
#	188613
#	200828
#	214159
#	225101
#	239477
#	250992
#	263026
#	273954
#	286904
#	298408
#	308543
#	320377
#	332273
#
# Disc length: 4572 seconds
#
# Revision: 1
# Processed by: cddbd v1.5.2PL0 Copyright (c) Steve Scherf et al.
# Submitted via: audiograbber 1.83.01
#
DISCID=9b11da1d
DTITLE=Jimmy Witherspoon - Urban Blues Singing Legend - CD 4
DYEAR=2006
DGENRE=Blues
TTITLE0=Would My Baby Make a Change
TTITLE1=The Wind Is Blowin'
TTITLE2=Love My Baby
TTITLE3=Baby, Baby
TTITLE4=Slow Your Speed
TTITLE5=Foolish Prayer
TTITLE6=Lucille
TTITLE7=Blues in Trouble
TTITLE8=Two Little Girls
TTITLE9=One Fine Gal
TTITLE10=Don't Tell Me Now
TTITLE11=Corn Whiskey
TTITLE12=The Day Is Dawning
TTITLE13=Jay's Blues (part 1)
TTITLE14=Jay's Blues (part 2)
TTITLE15=Miss, Miss Mistreater
TTITLE16=Back Home
TTITLE17=The Last Mile
TTITLE18=It
TTITLE19=Back Door Blues
TTITLE20=Fast Woman, Slow Gin
TTITLE21=24 Sad Hours
TTITLE22=Just for You
TTITLE23=Sad Life
TTITLE24=Move Me, Baby
TTITLE25=I'm Not Too Young
TTITLE26=Highway to Happiness
TTITLE27=I Done Told You
TTITLE28=Oh, Boy!
EXTD=JSP 7778 - CD 4
EXTT0=
EXTT1=
EXTT2=
EXTT3=
EXTT4=
EXTT5=
EXTT6=
EXTT7=
EXTT8=
EXTT9=
EXTT10=
EXTT11=
EXTT12=
EXTT13=
EXTT14=
EXTT15=
EXTT16=
EXTT17=
EXTT18=
EXTT19=
EXTT20=
EXTT21=
EXTT22=
EXTT23=
EXTT24=
EXTT25=
EXTT26=
EXTT27=
EXTT28=
PLAYORDER=
